<svg width="48" height="37" viewBox="0 0 48 37" fill="none" xmlns="http://www.w3.org/2000/svg">
<path d="M37.0259 16.4255C40.0536 16.0001 42.3847 13.4043 42.3912 10.2593C42.3912 7.15997 40.1318 4.59018 37.1691 4.104" stroke="#00533F" stroke-width="2.78623" stroke-linecap="round" stroke-linejoin="round"/>
<path d="M41.021 23.7041C43.9532 24.1425 46 25.1691 46 27.2853C46 28.7417 45.0363 29.688 43.4779 30.2827" stroke="#00533F" stroke-width="2.78623" stroke-linecap="round" stroke-linejoin="round"/>
<path fill-rule="evenodd" clip-rule="evenodd" d="M24.0017 24.6025C17.0259 24.6025 11.0681 25.6595 11.0681 29.881C11.0681 34.1003 16.9891 35.1877 24.0017 35.1877C30.9775 35.1877 36.9331 34.1416 36.9331 29.9179C36.9331 25.6943 31.0144 24.6025 24.0017 24.6025Z" stroke="#00533F" stroke-width="2.78623" stroke-linecap="round" stroke-linejoin="round"/>
<path fill-rule="evenodd" clip-rule="evenodd" d="M24.0014 18.5778C28.5788 18.5778 32.2903 14.8685 32.2903 10.2889C32.2903 5.71144 28.5788 2 24.0014 2C19.424 2 15.7125 5.71144 15.7125 10.2889C15.6952 14.8511 19.3784 18.5626 23.9406 18.5778H24.0014Z" stroke="#00533F" stroke-width="2.78623" stroke-linecap="round" stroke-linejoin="round"/>
<path d="M10.9747 16.4255C7.94476 16.0001 5.61589 13.4043 5.60938 10.2593C5.60938 7.15997 7.86879 4.59018 10.8314 4.104" stroke="#00533F" stroke-width="2.78623" stroke-linecap="round" stroke-linejoin="round"/>
<path d="M6.97897 23.7041C4.04672 24.1425 2 25.1691 2 27.2853C2 28.7417 2.96367 29.688 4.52204 30.2827" stroke="#00533F" stroke-width="2.78623" stroke-linecap="round" stroke-linejoin="round"/>
</svg>
