<svg width="39" height="46" viewBox="0 0 39 46" fill="none" xmlns="http://www.w3.org/2000/svg">
<path d="M19.4921 14.2343C16.4415 14.2343 1.1412 8.15694 1.1412 23.4098" stroke="white" stroke-width="2.3" stroke-linecap="round" stroke-linejoin="round"/>
<path d="M1.1412 23.4097C1.1412 38.6625 10.3246 44.819 13.3751 44.819C16.4257 44.819 16.4415 41.7606 19.4921 41.7606" stroke="white" stroke-width="2.3" stroke-linecap="round" stroke-linejoin="round"/>
<path d="M19.4921 14.2343C22.5427 14.2343 37.843 8.15694 37.843 23.4098" stroke="white" stroke-width="2.3" stroke-linecap="round" stroke-linejoin="round"/>
<path d="M37.8588 23.3857C37.8588 38.6386 28.6596 44.8189 25.6091 44.8189C22.5585 44.8189 22.5427 41.7604 19.4921 41.7604" stroke="white" stroke-width="2.3" stroke-linecap="round" stroke-linejoin="round"/>
<path d="M19.4921 14.2339C19.4921 5.08222 13.3751 2 13.3751 2" stroke="white" stroke-width="2.3" stroke-linecap="round" stroke-linejoin="round"/>
<path d="M19.4921 14.2339C19.4921 2.03165 25.617 5.05057 28.6675 2" stroke="white" stroke-width="2.3" stroke-linecap="round" stroke-linejoin="round"/>
<path d="M19.4921 14.2339C28.6438 11.1834 31.7181 8.10114 28.6675 2" stroke="white" stroke-width="2.3" stroke-linecap="round" stroke-linejoin="round"/>
</svg>
