<svg width="34" height="45" viewBox="0 0 34 45" fill="none" xmlns="http://www.w3.org/2000/svg">
<path d="M1.35135 34.101L12.3867 36.3081L14.042 32.9975M25.6292 42.9293V34.101L16.8009 27.4798L19.008 14.2373" stroke="white" stroke-width="2.36036" stroke-linecap="round" stroke-linejoin="round"/>
<path d="M7.97247 23.0656V16.4444L19.0079 14.2373L25.6291 20.8585L32.2503 23.0656" stroke="white" stroke-width="2.36036" stroke-linecap="round" stroke-linejoin="round"/>
<path d="M18.5175 5.97899C18.5175 7.03908 18.9387 8.05574 19.6883 8.80534C20.4379 9.55493 21.4545 9.97605 22.5146 9.97605C23.5747 9.97605 24.5914 9.55493 25.3409 8.80534C26.0905 8.05574 26.5117 7.03908 26.5117 5.97899C26.5117 4.91891 26.0905 3.90224 25.3409 3.15264C24.5914 2.40305 23.5747 1.98193 22.5146 1.98193C21.4545 1.98193 20.4379 2.40305 19.6883 3.15264C18.9387 3.90224 18.5175 4.91891 18.5175 5.97899Z" stroke="white" stroke-width="2.36036" stroke-linecap="round" stroke-linejoin="round"/>
</svg>
