<svg width="40" height="40" viewBox="0 0 40 40" fill="none" xmlns="http://www.w3.org/2000/svg">
<path fill-rule="evenodd" clip-rule="evenodd" d="M32.7038 32.7011C27.2071 38.1984 19.0679 39.386 12.4072 36.3057C11.4239 35.9098 10.6178 35.5898 9.85136 35.5898C7.71669 35.6025 5.05964 37.6723 3.6787 36.293C2.29776 34.9119 4.36917 32.2528 4.36917 30.1052C4.36917 29.3387 4.06189 28.547 3.66605 27.5618C0.584232 20.9021 1.77358 12.7602 7.27023 7.26474C14.287 0.245387 25.687 0.245387 32.7038 7.26294C39.7332 14.2931 39.7206 25.6835 32.7038 32.7011Z" stroke="#00533F" stroke-width="2.29603" stroke-linecap="round" stroke-linejoin="round"/>
<path d="M27.071 20.729H27.0876" stroke="#00533F" stroke-width="2.29603" stroke-linecap="round" stroke-linejoin="round"/>
<path d="M19.8604 20.728H19.8769" stroke="#00533F" stroke-width="2.29603" stroke-linecap="round" stroke-linejoin="round"/>
<path d="M12.6497 20.729H12.6662" stroke="#00533F" stroke-width="2.29603" stroke-linecap="round" stroke-linejoin="round"/>
</svg>
