<svg width="37" height="46" viewBox="0 0 37 46" fill="none" xmlns="http://www.w3.org/2000/svg">
<path d="M11.5577 41.6339L11.9904 37.3194L12.2242 37.2787L12.0784 36.4413L11.2327 36.3565L11.209 36.5927L8.81694 37.0092C6.5239 37.4097 4.39679 36.1251 4.39679 33.5589V30.2433V29.3933H3.54679H2.33691C0.239834 29.3933 -0.647059 27.2033 0.515915 25.6097L4.40251 19.6604L4.3882 16.0871M11.5577 41.6339C11.3489 43.7195 12.5362 45.4175 14.6332 45.4175H26.7121C27.2093 45.4184 27.7017 45.3212 28.1612 45.1314M11.5577 41.6339L12.4035 41.7187C12.3167 42.5852 12.5261 43.3029 12.9018 43.786C13.2654 44.2536 13.8334 44.5675 14.6332 44.5675H26.7121H26.7138C27.099 44.5682 27.4806 44.4929 27.8366 44.3458L28.1612 45.1314M11.5577 41.6339L12.4035 41.7186L12.9242 36.5261C12.9507 36.2616 12.852 35.9999 12.6573 35.8189C12.4626 35.6378 12.1945 35.5583 11.9326 35.6039L8.67113 36.1718L8.67068 36.1718C7.71318 36.3391 6.84916 36.1447 6.24507 35.7078C5.66045 35.285 5.24679 34.5854 5.24679 33.5589V29.3933C5.24679 28.9239 4.86623 28.5433 4.39679 28.5433H2.33691C1.61729 28.5433 1.17687 28.1867 0.978066 27.7482C0.770396 27.2901 0.795367 26.6687 1.20251 26.1108C1.21116 26.099 1.2195 26.0869 1.22752 26.0746L5.11412 20.1253C5.20505 19.9861 5.25317 19.8233 5.2525 19.657L5.2382 16.0871H4.3882M28.1612 45.1314C28.6207 44.9416 29.0381 44.6629 29.3897 44.3114C29.7412 43.9599 30.0198 43.5424 30.2097 43.0829C30.3995 42.6234 30.4967 42.131 30.4957 41.6339C30.4957 33.8364 32.3172 29.832 33.9651 26.2089C35.3265 23.2158 36.5695 20.483 36.5695 16.0871C36.5695 7.20386 29.3671 0 20.4824 0H20.4739C11.5906 0 4.3882 7.20243 4.3882 16.0871M28.1612 45.1314L27.8366 44.3458C28.1927 44.1987 28.5162 43.9828 28.7886 43.7104C29.061 43.438 29.277 43.1144 29.424 42.7584C29.5711 42.4023 29.6465 42.0207 29.6457 41.6355L29.6457 41.6339C29.6457 34.3605 31.2057 30.2827 32.7568 26.8176C32.9022 26.4928 33.0467 26.1748 33.1891 25.8614C34.5476 22.8718 35.7195 20.2928 35.7195 16.0871C35.7195 7.67325 28.8976 0.85 20.4824 0.85H20.4739C12.0607 0.85 5.23913 7.6709 5.2382 16.0854L5.2382 16.0837L4.3882 16.0871" stroke="white" stroke-width="1.7" stroke-linejoin="round"/>
<path d="M23.3974 22.9209C22.9382 22.9206 22.4806 22.8606 22.0346 22.7421C20.3649 22.2963 19.689 21.4544 19.4192 20.9096C18.3486 21.1459 15.4811 21.5039 14.2898 18.9227C13.9918 18.3739 13.8758 17.7314 13.9612 17.1015C14.0465 16.4716 14.328 15.8923 14.759 15.4593C15.4067 14.7925 16.2706 14.4284 17.1641 14.4455C17.4793 13.738 18.023 13.1801 18.6925 12.8776C19.5275 12.5398 20.4852 12.7131 21.5389 13.3921C21.6416 13.4601 21.7155 13.5691 21.7444 13.6956C21.7734 13.8221 21.7552 13.9559 21.6936 14.0679C21.6321 14.18 21.5323 14.2612 21.4159 14.2941C21.2994 14.3269 21.1757 14.3088 21.0715 14.2435C20.2702 13.7269 19.5792 13.5779 19.0185 13.8032C18.7509 13.94 18.5107 14.1325 18.3118 14.3699C18.1128 14.6072 17.9591 14.8847 17.8592 15.1864C17.8379 15.2558 17.8026 15.3191 17.756 15.372C17.7093 15.4248 17.6525 15.4658 17.5895 15.492C17.5265 15.5183 17.4589 15.5291 17.3916 15.5237C17.3243 15.5183 17.259 15.4968 17.2002 15.4608C17.0004 15.339 16.0569 15.489 15.3892 16.1775C15.0979 16.4628 14.9097 16.8509 14.8582 17.2725C14.8067 17.6941 14.8952 18.1219 15.1079 18.4794C16.2128 20.874 19.5358 19.8631 19.5696 19.8532C19.6325 19.8334 19.6986 19.8285 19.7634 19.8388C19.8282 19.849 19.8902 19.8742 19.9452 19.9127C20.0002 19.9512 20.047 20.002 20.0823 20.0617C20.1176 20.1214 20.1407 20.1886 20.15 20.2589C20.1559 20.2876 20.3585 21.2736 22.2537 21.7788C23.7231 22.171 25.1051 21.7466 25.5922 21.1102C25.7061 20.9637 25.7757 20.7828 25.7913 20.592C25.8069 20.4012 25.7679 20.2098 25.6795 20.0439C25.6288 19.9246 25.624 19.7883 25.666 19.6651C25.7081 19.5419 25.7936 19.4419 25.9038 19.387C26.014 19.3321 26.1398 19.3268 26.2536 19.3724C26.3674 19.4179 26.4598 19.5105 26.5105 19.6299C26.6718 19.9652 26.7376 20.3447 26.6997 20.7205C26.6617 21.0963 26.5217 21.4515 26.2974 21.7412C25.723 22.4925 24.6117 22.9209 23.3974 22.9209Z" fill="white" stroke="white" stroke-width="0.5"/>
<path d="M13.6916 18.3648C12.6684 18.3857 11.6659 18.052 10.8301 17.4125C9.79199 16.574 9.17643 15.2413 9.00081 13.4504C8.7095 10.4858 10.8644 9.14466 12.2666 8.77372C12.4843 8.00458 13.2142 6.14044 15.2287 5.82942C16.4352 5.6293 17.6692 5.77829 18.8054 6.26129C19.378 5.50652 20.6279 4.63833 22.5679 5.15736C24.4694 5.665 25.2108 6.4995 25.4948 7.022C26.5558 6.88778 29.5517 6.84717 30.6831 10.3184C31.4304 12.611 30.3895 13.5217 29.9057 13.8075C28.6627 14.5429 26.7625 14.0105 26.0792 13.0582C24.8948 11.41 25.6955 10.2639 25.7303 10.2159C25.7667 10.163 25.8126 10.1185 25.8652 10.085C25.9177 10.0516 25.9759 10.0298 26.0364 10.0211C26.0968 10.0124 26.1582 10.0168 26.2171 10.0342C26.2759 10.0515 26.3309 10.0814 26.3789 10.1221C26.4269 10.1628 26.4669 10.2135 26.4965 10.2712C26.5262 10.3289 26.5448 10.3925 26.5515 10.4581C26.5581 10.5237 26.5526 10.5901 26.5352 10.6534C26.5178 10.7167 26.4888 10.7756 26.4501 10.8265C26.4414 10.8414 26.0724 11.4362 26.8009 12.45C27.2363 13.0567 28.6608 13.4148 29.4671 12.9383C30.2281 12.4881 30.0781 11.4441 29.8188 10.6483C28.7148 7.26121 25.4564 8.01796 25.3192 8.05114C25.2589 8.06607 25.1966 8.06765 25.1358 8.05576C25.075 8.04388 25.0171 8.01878 24.9655 7.98199C24.9139 7.94519 24.8697 7.89746 24.8356 7.84168C24.8016 7.7859 24.7783 7.72321 24.7672 7.65741C24.7672 7.65741 24.4978 6.69364 22.3433 6.11865C20.1889 5.54366 19.3927 7.05964 19.3597 7.12253C19.3305 7.18034 19.2909 7.23129 19.2433 7.27242C19.1958 7.31356 19.1411 7.34406 19.0826 7.36216C19.0241 7.38027 18.9628 7.38561 18.9024 7.37789C18.8419 7.37016 18.7835 7.34953 18.7304 7.31717C17.6766 6.78537 16.4995 6.60852 15.3517 6.80953C13.5073 7.0948 13.0962 9.20261 13.0793 9.29175C13.0613 9.39046 13.016 9.48092 12.9495 9.55108C12.8829 9.62124 12.7981 9.66777 12.7065 9.68449C12.5808 9.70826 9.6054 10.3021 9.90449 13.3459C10.0568 14.8485 10.5489 15.948 11.3707 16.6151C12.2364 17.2388 13.285 17.4928 14.3136 17.3278C14.4329 17.304 14.5561 17.3325 14.656 17.4071C14.7559 17.4817 14.8244 17.5962 14.8464 17.7255C14.8683 17.8547 14.842 17.9881 14.7731 18.0963C14.7042 18.2045 14.5985 18.2787 14.4791 18.3024C14.2187 18.347 13.9553 18.3679 13.6916 18.3648Z" fill="white" stroke="white" stroke-width="0.5"/>
<path d="M30.4298 20.2187H30.4202C30.2989 20.2159 30.1837 20.161 30.0999 20.0662C30.016 19.9713 29.9703 19.8443 29.9729 19.7131C29.973 19.6477 29.9852 19.5829 30.009 19.5228C30.0327 19.4627 30.0674 19.4084 30.1111 19.3631C30.1547 19.3179 30.2063 19.2827 30.2628 19.2596C30.3193 19.2365 30.3795 19.226 30.4398 19.2287C30.481 19.2287 31.6586 19.1757 32.1127 16.7485C32.5851 14.2227 30.234 12.7909 30.2098 12.777C30.1571 12.7457 30.1107 12.7034 30.0731 12.6527C30.0355 12.6019 30.0075 12.5436 29.9907 12.4812C29.9739 12.4187 29.9686 12.3532 29.9752 12.2886C29.9817 12.2239 30 12.1612 30.0289 12.1042C30.0578 12.0472 30.0968 11.9968 30.1437 11.9561C30.1906 11.9154 30.2444 11.8851 30.3021 11.8669C30.3598 11.8487 30.4202 11.843 30.4799 11.8501C30.5397 11.8572 30.5975 11.877 30.6502 11.9083C31.6774 12.519 33.4925 14.3569 33.0091 16.9451C32.4114 20.1429 30.5971 20.2187 30.4298 20.2187Z" fill="white" stroke="white" stroke-width="0.5"/>
<path d="M27.7773 23.3076C26.7958 23.255 25.838 22.9631 24.9752 22.4538C24.8695 22.3894 24.7916 22.2822 24.7589 22.1557C24.7261 22.0292 24.7411 21.8938 24.8005 21.7792C24.86 21.6647 24.959 21.5804 25.0758 21.5449C25.1926 21.5095 25.3176 21.5257 25.4234 21.5901C25.4413 21.6009 27.2417 22.6796 28.4962 22.1962C28.7259 22.1037 28.9334 21.9564 29.1035 21.7653C29.2736 21.5743 29.4019 21.3443 29.479 21.0923C29.6861 20.6175 29.7819 20.0946 29.758 19.5701C29.7341 19.0456 29.5911 18.5356 29.3418 18.0851C29.0296 17.6092 28.6179 17.22 28.1403 16.9493C27.6627 16.6786 27.1327 16.5341 26.5937 16.5276C26.4724 16.521 26.3585 16.4625 26.277 16.365C26.1956 16.2675 26.1532 16.1389 26.1593 16.0075C26.1653 15.8762 26.2193 15.7528 26.3094 15.6646C26.3994 15.5764 26.5182 15.5305 26.6394 15.537C27.3237 15.5515 27.9951 15.7413 28.5985 16.091C29.202 16.4407 29.7203 16.9402 30.111 17.5488C30.4377 18.1322 30.6281 18.793 30.6658 19.4741C30.7035 20.1551 30.5873 20.8358 30.3273 21.4573C30.2028 21.8415 30.0009 22.1908 29.7364 22.4801C29.4718 22.7694 29.1511 22.9913 28.7976 23.1298C28.4693 23.2514 28.1242 23.3115 27.7773 23.3076ZM20.3219 10.9822C20.2115 10.9824 20.1047 10.9394 20.0213 10.861C19.9379 10.7826 19.8835 10.6741 19.8681 10.5557C19.8528 10.4372 19.8776 10.3168 19.9379 10.2166C19.9982 10.1163 20.0899 10.0431 20.1962 10.0105C20.3455 9.97882 20.4852 9.90755 20.6029 9.80305C20.7205 9.69856 20.8124 9.5641 20.8703 9.41172C20.9217 9.18943 20.9253 8.95734 20.881 8.73327C20.8367 8.50921 20.7456 8.29911 20.6146 8.11911C20.5455 8.01114 20.5189 7.87787 20.5406 7.74863C20.5622 7.61939 20.6304 7.50476 20.7301 7.42996C20.8298 7.35515 20.9529 7.32631 21.0722 7.34976C21.1915 7.37321 21.2974 7.44704 21.3665 7.55501C21.5822 7.86315 21.7278 8.22207 21.7914 8.60261C21.855 8.98314 21.8347 9.37456 21.7323 9.74503C21.6259 10.0457 21.4534 10.3137 21.2298 10.5259C21.0062 10.7381 20.7383 10.8881 20.4491 10.9629C20.4078 10.9759 20.3649 10.9824 20.3219 10.9822Z" fill="white" stroke="white" stroke-width="0.5"/>
<path d="M23.6819 13.7018C23.5631 13.7019 23.4489 13.6519 23.3636 13.5624C23.2782 13.473 23.2284 13.351 23.2246 13.2224C23.1331 10.1875 21.3642 10.0171 21.2887 10.0112C21.168 10.0027 21.0553 9.94268 20.9753 9.84439C20.8954 9.74609 20.8546 9.61748 20.862 9.48672C20.8686 9.35654 20.9227 9.23451 21.0123 9.14742C21.1019 9.06033 21.2197 9.01529 21.3399 9.02217C21.3665 9.02217 24.0212 9.21681 24.1383 13.1907C24.1421 13.3219 24.0977 13.4494 24.0148 13.5452C23.9319 13.6409 23.8172 13.6971 23.6961 13.7013L23.6819 13.7018ZM20.5707 19.1571C20.4876 19.157 20.4062 19.1324 20.335 19.0859C20.2639 19.0394 20.2058 18.9729 20.1669 18.8933C20.1281 18.8138 20.11 18.7243 20.1146 18.6345C20.1192 18.5447 20.1463 18.4579 20.193 18.3835C20.3256 18.2143 20.4229 18.0161 20.4782 17.8024C20.5335 17.5887 20.5454 17.3645 20.5131 17.1453C20.4435 16.9944 20.347 16.8599 20.2293 16.7494C20.1116 16.6389 19.9749 16.5547 19.8271 16.5015C19.7111 16.4628 19.6141 16.3757 19.5575 16.2595C19.5008 16.1433 19.489 16.0075 19.5248 15.882C19.5606 15.7564 19.641 15.6513 19.7482 15.59C19.8555 15.5286 19.981 15.5158 20.0969 15.5546C20.3811 15.6537 20.6424 15.8176 20.8633 16.0352C21.0842 16.2527 21.2595 16.519 21.3774 16.816C21.4691 17.1806 21.4783 17.5638 21.4042 17.933C21.3301 18.3023 21.1748 18.6467 20.9517 18.9372C20.9098 19.005 20.8531 19.0605 20.7866 19.0989C20.7202 19.1372 20.646 19.1572 20.5707 19.1571Z" fill="white" stroke="white" stroke-width="0.5"/>
<path d="M24.3807 19.1572C24.2795 19.157 24.1811 19.1206 24.1011 19.0534C24.0211 18.9863 23.9639 18.8923 23.9385 18.7862C23.895 18.5059 23.794 18.2398 23.6429 18.0074C23.4918 17.7751 23.2944 17.5824 23.0654 17.4436C22.2651 17.033 21.211 17.553 21.2005 17.5585C21.1461 17.5861 21.0872 17.6018 21.0272 17.6048C20.9672 17.6078 20.9073 17.5979 20.8508 17.5758C20.7943 17.5537 20.7424 17.5197 20.698 17.4759C20.6537 17.432 20.6177 17.3791 20.5922 17.3203C20.5667 17.2614 20.5522 17.1976 20.5494 17.1326C20.5467 17.0677 20.5558 17.0027 20.5762 16.9416C20.5967 16.8804 20.628 16.8242 20.6685 16.7762C20.709 16.7281 20.7578 16.6892 20.8122 16.6616C20.8707 16.6314 22.2587 15.9395 23.4505 16.5447C23.8041 16.7419 24.1115 17.0239 24.3492 17.3691C24.587 17.7144 24.7488 18.1139 24.8225 18.5371C24.8401 18.6104 24.842 18.6871 24.828 18.7612C24.8139 18.8354 24.7844 18.9051 24.7416 18.965C24.6988 19.0249 24.6439 19.0734 24.5811 19.1067C24.5183 19.14 24.4493 19.1573 24.3793 19.1572H24.3807ZM11.8929 14.577C11.8289 14.5771 11.7656 14.5622 11.7073 14.5335C11.5974 14.48 11.5114 14.3818 11.468 14.2602C11.4246 14.1385 11.4273 14.0032 11.4754 13.8837C11.5986 13.5896 11.7795 13.3281 12.0056 13.1174C12.2316 12.9068 12.4974 12.752 12.7843 12.6639C13.3966 12.5247 14.0447 12.7916 14.705 13.4563C14.7492 13.5004 14.7848 13.5536 14.81 13.6127C14.8351 13.6717 14.8493 13.7356 14.8516 13.8006C14.854 13.8656 14.8445 13.9305 14.8237 13.9915C14.8029 14.0525 14.7712 14.1085 14.7304 14.1563C14.6896 14.2041 14.6406 14.2427 14.586 14.2699C14.5315 14.2972 14.4725 14.3125 14.4125 14.315C14.3524 14.3176 14.2925 14.3073 14.2362 14.2848C14.1798 14.2623 14.1281 14.228 14.084 14.1838C13.9464 14.0108 13.7758 13.8721 13.5839 13.7773C13.3921 13.6825 13.1836 13.6338 12.9727 13.6346C12.8265 13.688 12.6921 13.7736 12.578 13.886C12.4638 13.9984 12.3725 14.1352 12.3096 14.2878C12.2728 14.374 12.214 14.447 12.1402 14.4983C12.0664 14.5495 11.9806 14.5768 11.8929 14.577ZM17.2153 11.399C17.1382 11.399 17.0624 11.3778 16.9949 11.3376C16.7126 11.1958 16.4633 10.9872 16.2654 10.7271C16.0675 10.4671 15.9261 10.1622 15.8516 9.83497C15.8091 9.5103 15.8264 9.17975 15.9025 8.86237C15.9785 8.54498 16.1118 8.24703 16.2947 7.98568C16.3708 7.88689 16.4794 7.82403 16.5975 7.81041C16.7156 7.79678 16.834 7.83345 16.9276 7.91266C17.0211 7.99188 17.0826 8.10742 17.0989 8.23483C17.1152 8.36224 17.0851 8.49153 17.015 8.59534C16.8077 8.89557 16.7126 9.26948 16.7488 9.64231C16.801 9.82584 16.8894 9.9949 17.0078 10.1378C17.1262 10.2807 17.2719 10.394 17.4348 10.4699C17.5237 10.5229 17.5938 10.6064 17.6341 10.7073C17.6743 10.8082 17.6824 10.9208 17.6571 11.0272C17.6318 11.1337 17.5745 11.228 17.4943 11.2953C17.4141 11.3626 17.3154 11.3991 17.2139 11.399H17.2153Z" fill="white" stroke="white" stroke-width="0.5"/>
<path d="M13.1451 13.6187H13.1323C13.0115 13.6151 12.8969 13.5598 12.8136 13.465C12.7303 13.3702 12.6851 13.2435 12.6878 13.1126C12.6926 12.0759 13.0658 11.0811 13.7301 10.3345C14.3943 9.58801 15.2985 9.14716 16.2549 9.10351C16.3762 9.0953 16.4956 9.1396 16.5867 9.22668C16.6778 9.31375 16.7333 9.43646 16.7408 9.56781C16.7484 9.69916 16.7075 9.82839 16.6271 9.92707C16.5467 10.0258 16.4334 10.0858 16.3121 10.094C13.7136 10.2703 13.6047 13.023 13.6015 13.1403C13.5975 13.2686 13.5477 13.3901 13.4625 13.4794C13.3774 13.5686 13.2636 13.6186 13.1451 13.6187Z" fill="white" stroke="white" stroke-width="0.5"/>
</svg>
