<svg width="38" height="37" viewBox="0 0 38 37" fill="none" xmlns="http://www.w3.org/2000/svg">
<path d="M22.9054 22.6453C25.9247 19.6294 24.021 12.8381 18.6533 7.47655C13.2856 2.11497 6.48658 0.213413 3.46726 3.2293C0.447936 6.24519 2.35166 13.0365 7.71935 18.3981C13.087 23.7596 19.886 25.6612 22.9054 22.6453Z" stroke="#00533F" stroke-width="2.29603" stroke-linecap="round" stroke-linejoin="round"/>
<path d="M22.9054 14.9847C25.9247 18.0006 24.021 24.7919 18.6533 30.1535C13.2856 35.515 6.48658 37.4166 3.46726 34.4007C0.447937 31.3848 2.35166 24.5935 7.71935 19.232C13.087 13.8704 19.8861 11.9688 22.9054 14.9847Z" stroke="#00533F" stroke-width="2.29603" stroke-linecap="round" stroke-linejoin="round"/>
<path d="M15.1886 22.6453C12.1693 19.6294 14.073 12.8381 19.4407 7.47655C24.8084 2.11497 31.6074 0.21341 34.6267 3.2293C37.646 6.24519 35.7423 13.0365 30.3746 18.3981C25.0069 23.7596 18.2079 25.6612 15.1886 22.6453Z" stroke="#00533F" stroke-width="2.29603" stroke-linecap="round" stroke-linejoin="round"/>
<path d="M15.1886 14.9847C12.1693 18.0006 14.073 24.7919 19.4407 30.1535C24.8084 35.515 31.6074 37.4166 34.6267 34.4007C37.646 31.3848 35.7423 24.5935 30.3746 19.232C25.0069 13.8704 18.2079 11.9688 15.1886 14.9847Z" stroke="#00533F" stroke-width="2.29603" stroke-linecap="round" stroke-linejoin="round"/>
</svg>
