<svg width="51" height="44" viewBox="0 0 51 44" fill="none" xmlns="http://www.w3.org/2000/svg">
<path d="M21.0375 20.641C18.079 22.6189 17.5327 27.6508 16.7816 27.6508C16.0306 27.6508 15.7803 24.897 13.5271 21.8928C11.274 18.8886 9.02087 17.3865 7.51879 13.381C6.0167 9.37542 7.88859 9.71168 9.27122 10.1265C10.1982 10.4046 10.0223 11.6277 11.0237 11.8789C12.025 12.1301 17.2823 8.37403 16.7816 6.6216C16.2809 4.86917 12.8514 1.37978 9.27122 1.3643C5.11416 1.34633 1.51045 7.87338 1.2601 8.37403C1.00975 8.87468 -0.199097 26.4131 6.0167 34.9109C8.42507 38.2034 13.0264 42.1709 13.5271 42.171C14.0278 42.171 15.9835 40.9663 17.2823 39.6674C19.0348 37.915 22.2893 35.9122 22.79 35.6619C23.2907 35.4116 28.8007 36.3123 32.0528 34.9109C35.364 33.484 38.3115 28.9025 38.8122 28.6521C39.3129 28.4018 44.5928 28.0617 46.8233 25.648C50.4728 21.6989 50.3632 15.9266 46.8233 11.8789C43.255 7.79857 37.4754 6.9903 33.0542 10.1265C29.7346 12.4812 29.299 19.3893 28.7983 19.6397C28.2976 19.8901 23.8822 18.7392 21.0375 20.641Z" stroke="white" stroke-width="1.97445"/>
</svg>
