<svg width="39" height="47" viewBox="0 0 39 47" fill="none" xmlns="http://www.w3.org/2000/svg">
<path d="M1.27659 3.92027L1.27667 3.92103L1.27681 3.92232L1.27698 3.92403C1.27706 3.92478 1.27705 3.92477 1.27698 3.92403C1.28043 3.95778 1.28216 3.9917 1.28216 4.02563C1.28216 7.25691 2.04719 9.57349 3.13747 11.2553C4.23025 12.9409 5.69207 14.0537 7.1844 14.8064C8.68245 15.5621 10.196 15.947 11.3633 16.1774C11.747 16.2531 12.0593 16.3064 12.3392 16.3541C12.506 16.3826 12.6613 16.4091 12.8132 16.4372C12.9878 16.4694 13.1838 16.5087 13.346 16.5606C13.4201 16.5843 13.558 16.6321 13.6957 16.7221C13.7985 16.7892 14.1859 17.067 14.1859 17.6096V17.6132V17.6173V17.6221V17.6274V17.6332V17.6396V17.6466V17.6541V17.6622V17.6709V17.68V17.6898V17.7V17.7108V17.7222V17.7341V17.7465V17.7594V17.7729V17.7869V17.8014V17.8165V17.832V17.8481V17.8647V17.8819V17.8995V17.9176V17.9363V17.9554V17.9751V17.9952V18.0159V18.037V18.0587V18.0808V18.1034V18.1265V18.1501V18.1742V18.1988V18.2238V18.2493V18.2753V18.3017V18.3287V18.3561V18.3839V18.4122V18.441V18.4702V18.4999V18.53V18.5606V18.5917V18.6232V18.6551V18.6875V18.7203V18.7535V18.7872V18.8213V18.8558V18.8908V18.9262V18.962V18.9983V19.0349V19.072V19.1095V19.1474V19.1857V19.2245V19.2636V19.3031V19.3431V19.3834V19.4241V19.4652V19.5068V19.5487V19.591V19.6336V19.6767V19.7201V19.764V19.8082V19.8527V19.8977V19.943V19.9887V20.0347V20.0811V20.1279V20.175V20.2225V20.2703V20.3185V20.3671V20.4159V20.4652V20.5147V20.5647V20.6149V20.6655V20.7164V20.7677V20.8192V20.8711V20.9234V20.9759V21.0288V21.082V21.1355V21.1893V21.2435V21.2979V21.3526V21.4077V21.4631V21.5187V21.5747V21.6309V21.6874V21.7443V21.8014V21.8588V21.9165V21.9744V22.0327V22.0912V22.15V22.2091V22.2684V22.3281V22.3879V22.4481V22.5085V22.5692V22.6301V22.6912V22.7527V22.8144V22.8763V22.9385V23.0009V23.0635V23.1264V23.1896V23.2529V23.3165V23.3803V23.4444V23.5087V23.5732V23.6379V23.7029V23.768V23.8334V23.899V23.9648V24.0308V24.097V24.1634V24.23V24.2968V24.3639V24.4311V24.4984V24.566V24.6338V24.7018V24.7699V24.8382V24.9067V24.9754V25.0442V25.1132V25.1824V25.2518V25.3213V25.391V25.4608V25.5308V25.601V25.6713V25.7418V25.8124V25.8831V25.954V26.0251V26.0962V26.1676V26.239V26.3106V26.3823V26.4542V26.5261V26.5982V26.6705V26.7428V26.8152V26.8878V26.9605V27.0333V27.1062V27.1792V27.2523V27.3255V27.3989V27.4723V27.5458V27.6194V27.6931V27.7668V27.8407V27.9146V27.9887V28.0628V28.137V28.2112V28.2856V28.36V28.4344V28.509V28.5836V28.6582V28.7329V28.8077V28.8825V28.9574V29.0324V29.1073V29.1824V29.2574V29.3325V29.4077V29.4829V29.5581V29.6333V29.7086V29.7839V29.8592V29.9346V30.01V30.0853V30.1608V30.2362V30.3116V30.3871V30.4625V30.538V30.6134V30.6889V30.7643V30.8398V30.9152V30.9907V31.0661V31.1415V31.2169V31.2923V31.3676V31.443V31.5183V31.5936V31.6688V31.744V31.8192V31.8944V31.9695V32.0446V32.1196V32.1946V32.2695V32.3444V32.4193V32.4941V32.5688V32.6435V32.7181V32.7926V32.8671V32.9415V33.0159V33.0902V33.1644V33.2385V33.3125V33.3865V33.4604V33.5342V33.6079V33.6815V33.755V33.8285V33.9018V33.9751V34.0482V34.1212V34.1942V34.267V34.3397V34.4123V34.4848V34.5571V34.6294V34.7015V34.7735V34.8454V34.9172V34.9888V35.0603V35.1316V35.2028V35.2739V35.3448V35.4156V35.4863V35.5568V35.6271V35.6973V35.7674V35.8372V35.907V35.9765V36.0459V36.1151V36.1842V36.2531V36.3218V36.3903V36.4587V36.5269V36.5949V36.6627V36.7303V36.7978V36.865V36.9321V36.9989V37.0656V37.1321V37.1983V37.2644V37.3302V37.3959V37.4613V37.5265V37.5915V37.6563V37.7209V37.7852V37.8493V37.9132V37.9768V38.0403V38.1035V38.1664V38.2291V38.2916V38.3538V38.4158V38.4776V38.5391V38.6003V38.6613V38.722V38.7825V38.8427V38.9026V38.9623V39.0217V39.0809V39.1397V39.1983V39.2566V39.3147V39.3724V39.4299V39.4871V39.544V39.6006V39.6569V39.713V39.7687V39.8241V39.8792V39.9341V39.9886V40.0428V40.0967V40.1503V40.2035V40.2565V40.3091V40.3614V40.4134V40.4651V40.5164V40.5674V40.6181V40.6684V40.7184V40.7681V40.8174V40.8663V40.915V40.9632V41.0112V41.0587V41.106V41.1528V41.1993V41.2454V41.2912V41.3366V41.3816V41.4263V41.4706V41.5145V41.5581V41.6012V41.644V41.6864V41.7284V41.77V41.8112V41.852V41.8925V41.9325V41.9721V42.0114V42.0502V42.0886V42.1266V42.1642V42.2014V42.2381V42.2745V42.3104V42.3459V42.381V42.4156V42.4499V42.4836V42.517V42.5499V42.5824V42.6144V42.646V42.6772V42.7079V42.7381V42.7679V42.7973V42.8261V42.8546V42.8825V42.91V42.9371V42.9636V42.9897V43.0154V43.0405V43.0652V43.0894V43.1131V43.1363V43.1591V43.1813V43.2031V43.2244V43.2451V43.2654V43.2852V43.3045V43.3232V43.3415V43.3593V43.3765V43.3932V43.4094V43.4251V43.4403V43.455V43.4691V43.4827V43.4958V43.5083V43.5204V43.5318V43.5428V43.5532V43.563V43.5723V43.5811V43.5893V43.597V43.6041V43.6107V43.6167V43.6221V43.627V43.6313V43.635V43.6382V43.6408V43.6415L14.1859 43.6427L14.1859 43.6428L14.1859 43.6439L14.1862 43.6544C14.1866 43.6688 14.1876 43.694 14.1897 43.7282C14.1939 43.797 14.2027 43.9009 14.2209 44.0276C14.258 44.2862 14.3303 44.6137 14.4654 44.9274C14.6004 45.2412 14.7814 45.5034 15.0163 45.6853C15.2371 45.8563 15.5601 46 16.073 46C16.5859 46 16.9089 45.8563 17.1297 45.6853C17.3645 45.5034 17.5456 45.2412 17.6806 44.9274C17.8156 44.6137 17.888 44.2862 17.9251 44.0276C17.9433 43.9009 17.9521 43.797 17.9563 43.7282C17.9584 43.694 17.9594 43.6688 17.9598 43.6544L17.9601 43.6439L17.9601 43.6427L17.9601 43.6415V32.9191C17.9601 32.3668 18.4078 31.9191 18.9601 31.9191H21.224C21.7763 31.9191 22.224 32.3668 22.224 32.9191V43.6411L22.224 43.6438L22.224 43.6425L22.2243 43.6531C22.2248 43.667 22.2257 43.6916 22.2279 43.7254C22.2322 43.7931 22.2414 43.8957 22.2602 44.0211C22.2986 44.277 22.3735 44.6012 22.5135 44.9121C22.6529 45.2216 22.842 45.4858 23.0936 45.6721C23.3337 45.8498 23.688 46 24.2454 46C24.8029 46 25.1572 45.8498 25.3972 45.6721C25.6489 45.4858 25.8379 45.2216 25.9773 44.9121C26.1173 44.6012 26.1923 44.277 26.2307 44.0211C26.2495 43.8957 26.2586 43.7931 26.263 43.7254C26.2651 43.6916 26.2661 43.667 26.2665 43.6531L26.2668 43.6432L13.1859 17.6096C13.1859 17.5136 12.815 17.4502 12.1991 17.3448C9.18159 16.8287 0.282159 15.3067 0.282159 4.02563M1.27659 3.92027C1.27656 3.91999 1.27653 3.91971 1.2765 3.91944L0.282159 4.02563M1.27659 3.92027C1.27673 3.92152 1.27686 3.92277 1.27698 3.92401L1.27588 3.91077C1.27477 3.89623 1.27304 3.87073 1.27154 3.8357C1.26852 3.76536 1.26647 3.65837 1.27175 3.52603C1.28248 3.257 1.32261 2.90638 1.43221 2.55361C1.64148 1.88003 2.07262 1.24249 3.11556 1.04643C3.67125 0.941975 4.04678 1.02808 4.31218 1.16106C4.59159 1.30106 4.82415 1.53177 5.01621 1.82038C5.20893 2.10998 5.3391 2.42586 5.42117 2.67958C5.45869 2.79561 5.48439 2.8931 5.50063 2.96136M1.27659 3.92027C1.27655 3.91986 1.2765 3.91944 0.282159 4.02563M0.282159 4.02563C0.282159 4.02563 -0.0805073 0.629728 2.93081 0.063649C5.94213 -0.50243 6.50813 2.89363 6.50813 2.89363M6.50813 2.89363L5.51107 2.81694C5.50735 2.86527 5.50387 2.91341 5.50063 2.96136M6.50813 2.89363C5.52173 3.05803 5.5218 3.05845 5.52187 3.05885L5.52199 3.0596L5.52221 3.06087L5.52248 3.06245L6.50813 2.89363ZM5.50063 2.96136C5.37228 4.85819 5.61357 6.46188 6.2088 7.79636C6.82362 9.17476 7.78913 10.2047 8.98782 10.9531C11.3342 12.4181 14.5653 12.7977 17.8795 12.7977H23.7466C26.3588 12.7977 27.7498 14.1645 28.6589 15.0734L36.9053 23.9501C36.9178 23.9634 36.9305 23.9765 36.9437 23.9892L5.50063 2.96136ZM20.2264 1.06365C22.2556 1.06365 23.92 2.72807 23.92 4.75728C23.92 6.7865 22.2556 8.45092 20.2264 8.45092C18.1971 8.45092 16.5327 6.7865 16.5327 4.75728C16.5327 2.72807 18.1971 1.06365 20.2264 1.06365ZM26.2668 43.6407C26.2668 43.6399 26.2668 43.6399 26.2668 43.6405V43.6407Z" stroke="white" stroke-width="2" stroke-linejoin="round"/>
</svg>
