<svg width="43" height="47" viewBox="0 0 43 47" fill="none" xmlns="http://www.w3.org/2000/svg">
<path d="M37.7114 7.14422L37.7236 10.7101C37.7236 10.7101 37.7236 12.8141 39.5891 12.8141C41.4545 12.8141 41.4545 10.7101 41.4545 10.7101V3.48701C41.4545 3.48701 41.4545 1.62158 39.5891 1.62158C37.7236 1.62158 37.7236 3.48701 37.7236 3.48701L37.7114 7.14422ZM37.7114 7.14422H5.66778M5.66778 7.14422V10.9487C5.66778 10.9487 5.66778 12.8141 3.80236 12.8141C1.93694 12.8141 1.93694 10.9487 1.93694 10.9487V3.48701C1.93694 3.48701 1.93694 1.62158 3.80236 1.62158C5.66778 1.62158 5.66778 3.48701 5.66778 3.48701V7.14422ZM21.6957 11.1962C19.6251 11.1962 17.9649 12.8564 17.9649 14.927C17.9649 16.9976 19.6251 18.6579 21.6957 18.6579C23.7663 18.6579 25.4266 16.9976 25.4266 14.927C25.4266 12.8564 23.7663 11.1962 21.6957 11.1962ZM27.292 23.9783V44.0129C27.292 44.0129 27.292 45.8783 25.4266 45.8783C23.5611 45.8783 23.5611 44.0129 23.5611 44.0129V37.4839V36.5512H22.6284H20.763H19.8303V37.4839V44.0129C19.8303 44.0129 19.8303 45.8783 17.9649 45.8783C16.0994 45.8783 16.0994 44.0129 16.0994 44.0129V23.9783C12.238 21.9449 9.57045 17.897 9.57045 13.2334C9.57045 13.2334 9.57045 11.368 11.4359 11.368C13.3013 11.368 13.3013 13.2334 13.3013 13.2334C13.3013 17.897 17.0321 21.6278 21.6957 21.6278C26.3593 21.6278 30.0901 17.897 30.0901 13.2334C30.0901 13.2334 30.0901 11.368 31.9555 11.368C33.821 11.368 33.821 13.2334 33.821 13.2334C33.821 17.897 31.1534 21.9449 27.292 23.9783Z" stroke="white" stroke-width="2.00631"/>
</svg>
