<svg width="42" height="39" viewBox="0 0 42 39" fill="none" xmlns="http://www.w3.org/2000/svg">
<path d="M28.9058 2.20021L28.9062 2.19991C29.3047 1.88902 29.8122 1.49436 30.3424 1.17654C30.885 0.851314 31.3884 0.646155 31.7839 0.646155C31.9591 0.646155 32.1788 0.723917 32.405 0.885102C32.6279 1.04389 32.8267 1.26266 32.9591 1.49181L40.3986 14.3734C40.9092 15.2577 41.0475 16.3085 40.7833 17.2948C40.519 18.281 39.8738 19.1219 38.9895 19.6325L7.7053 37.695L7.9053 38.0414L7.7053 37.695C5.89469 38.7404 3.44051 38.1728 2.44344 36.1576L2.08493 36.335L2.44343 36.1576C1.63772 34.5295 1.07557 32.9422 0.938762 31.2539C0.80237 29.5454 1.11402 27.8597 1.86004 26.036C2.74581 23.8799 4.28967 21.4367 6.56172 18.3995L6.72063 18.1871L6.58677 17.9581C6.41323 17.6611 6.3324 17.3191 6.35467 16.976C6.37693 16.6328 6.50127 16.3041 6.71172 16.0321C6.92216 15.7601 7.20911 15.5572 7.53571 15.4494C7.86232 15.3417 8.21367 15.3341 8.54464 15.4275L8.80062 15.4997L8.96626 15.2916C9.55356 14.5538 10.1729 13.7881 10.8267 12.9879L10.9664 12.8168L10.8961 12.6075C10.8048 12.3353 10.7828 12.0447 10.8321 11.7619C10.8815 11.4791 11.0007 11.2131 11.1788 10.988C11.357 10.7629 11.5885 10.5858 11.8524 10.4728C12.1163 10.3598 12.4043 10.3144 12.6901 10.3408L12.9163 10.3617L13.0501 10.1782C13.94 8.95815 14.7216 7.75026 15.3417 6.73886L15.3421 6.73818C15.5001 6.47932 15.6648 6.16918 15.8319 5.85452C15.9093 5.70883 15.9872 5.56217 16.0652 5.41919C16.3196 4.95255 16.5873 4.50033 16.8882 4.13C17.1901 3.75829 17.5026 3.49808 17.8362 3.37733C18.1547 3.26202 18.5356 3.25801 19.0214 3.48231L19.0388 3.49035L19.0569 3.49668L19.1891 3.11915L19.0569 3.49669L19.057 3.49671L19.0572 3.49679L19.0581 3.49711L19.0617 3.49836L19.0755 3.50321L19.1282 3.52161L19.3175 3.58764C19.4749 3.64247 19.6868 3.71612 19.9049 3.79134C20.3242 3.93597 20.8034 4.09957 20.9237 4.13085C22.1092 4.44134 23.4914 4.62525 24.6788 4.38456L24.6799 4.38433C26.2592 4.05944 27.7039 3.13551 28.9058 2.20021ZM34.0749 11.1241L34.4214 10.924L34.2213 10.5776L31.2059 5.35648L30.9855 4.97485L30.627 5.23109C29.0215 6.37844 27.2628 7.37621 25.3713 7.76351C23.4312 8.16008 21.4497 7.83415 20.0549 7.47082L20.0548 7.47081C19.8198 7.40963 19.6033 7.37528 19.4049 7.39482C19.1877 7.41622 19.0105 7.5003 18.8644 7.63789C18.7346 7.76011 18.64 7.9159 18.5615 8.05329C18.533 8.10313 18.5057 8.15218 18.478 8.20212C18.4208 8.30519 18.3615 8.41202 18.2848 8.53731L18.2845 8.53781C17.7526 9.40946 17.0943 10.4349 16.3436 11.504L16.0758 11.8854L16.4933 12.0923L16.7292 12.2092L16.7318 12.2105C16.9364 12.31 17.1192 12.4489 17.2698 12.6193C17.4204 12.7897 17.5359 12.9883 17.6095 13.2035C17.6831 13.4186 17.7134 13.6463 17.6987 13.8732L18.0978 13.8991L17.6987 13.8732C17.684 14.1002 17.6245 14.322 17.5238 14.5259C17.423 14.7298 17.2829 14.9118 17.1116 15.0613C16.9402 15.2109 16.741 15.3251 16.5254 15.3973C16.3097 15.4696 16.0819 15.4985 15.8551 15.4824C15.6282 15.4663 15.4068 15.4054 15.2035 15.3034L15.2014 15.3024L14.1963 14.8051L13.9104 14.6637L13.7089 14.9109C13.203 15.5315 12.7218 16.1235 12.2616 16.6988L11.9759 17.0559L12.3679 17.2915C12.7476 17.5197 13.025 17.8853 13.1425 18.3125C13.26 18.7397 13.2086 19.1957 12.999 19.586C12.7894 19.9763 12.4377 20.2711 12.0167 20.4091C11.5966 20.5469 11.1396 20.5181 10.7402 20.3287L10.0798 20.0027L9.78316 19.8563L9.58368 20.1202C7.27168 23.1795 5.83028 25.4445 5.04908 27.3451L5.0489 27.3455C4.46651 28.7674 4.29202 29.9077 4.37642 30.9775L4.37643 30.9777C4.46043 32.0357 4.81119 33.1443 5.47384 34.5042L5.66181 34.89L6.03343 34.6754L37.2624 16.6448L37.6088 16.4448L37.4088 16.0984L36.3463 14.2582L36.1463 13.9117L35.7999 14.1117L26.601 19.4229C26.6006 19.4231 26.6003 19.4233 26.6 19.4235C26.2042 19.6482 25.7357 19.7073 25.2964 19.5881C24.8568 19.4687 24.4823 19.1804 24.2545 18.7859C24.0267 18.3914 23.9643 17.9228 24.0807 17.4824C24.197 17.0425 24.4824 16.6664 24.8748 16.4359C24.8752 16.4357 24.8756 16.4355 24.876 16.4352L34.0749 11.1241Z" fill="#00533F" stroke="#E5EEEC" stroke-width="0.8"/>
</svg>
