<svg width="49" height="52" viewBox="0 0 49 52" fill="none" xmlns="http://www.w3.org/2000/svg">
<path d="M29.063 31.525C28.7603 31.525 28.4575 31.3625 28.3062 30.875L26.3384 23.2375C24.976 18.0375 27.7007 12.675 32.3932 11.05L44.5027 6.66252C44.8055 6.50002 44.9569 6.66252 45.2596 6.82502C45.2596 6.82502 45.411 6.98752 45.411 7.31252V21.125C45.411 26.4875 41.4754 30.875 36.4801 31.0375L29.063 31.525ZM43.8973 8.45002L32.6959 12.5125C28.7603 13.975 26.4897 18.525 27.7007 22.75L29.5171 29.7375L36.3288 29.4125C40.4158 29.25 43.7459 25.5125 43.7459 20.9625L43.8973 8.45002Z" fill="white"/>
<path d="M37.5397 18.8501C37.237 18.8501 36.7829 18.5251 36.7829 18.2001C36.7829 17.7126 36.9343 17.3876 37.3884 17.2251L41.1726 16.5751C41.6267 16.5751 41.9295 16.7376 42.0808 17.2251C42.0808 17.7126 41.9295 18.0376 41.4753 18.2001L37.5397 18.8501ZM35.2692 22.1001C34.9664 22.1001 34.5123 21.7751 34.5123 21.4501L33.6041 15.7626C33.6041 15.2751 33.7555 14.9501 34.2096 14.7876C34.6637 14.7876 34.9664 14.9501 35.1178 15.4376L36.026 21.1251C36.026 21.6126 35.7233 22.1001 35.2692 22.1001ZM32.9986 25.5126C32.6959 25.5126 32.2418 25.1876 32.2418 24.8626C32.2418 24.3751 32.3932 24.0501 32.8473 23.8876L38.1452 22.9126C38.5993 22.9126 38.9021 23.0751 39.0534 23.5626C39.0534 24.0501 38.9021 24.3751 38.4479 24.5376L32.9986 25.5126ZM30.7281 28.7626C30.4253 28.7626 29.9712 28.4376 29.9712 28.1126L29.2144 23.4001C29.2144 22.9126 29.3658 22.5876 29.8199 22.4251C30.274 22.4251 30.5767 22.5876 30.7281 23.0751L31.4849 27.7876C31.6363 28.2751 31.3336 28.7626 30.7281 28.7626C30.8795 28.7626 30.8795 28.7626 30.7281 28.7626Z" fill="white"/>
<path d="M29.063 31.525C28.9116 31.525 28.7603 31.525 28.6089 31.3625C28.3062 31.0375 28.1548 30.55 28.4575 30.225L40.4157 12.35C40.7185 12.025 41.1726 11.8625 41.4753 12.1875C41.7781 12.5125 41.9294 13 41.6267 13.325L29.6685 31.2C29.5171 31.3625 29.2144 31.525 29.063 31.525ZM21.0404 30.55L12.8664 30.0625C7.41712 29.7375 3.17876 25.025 3.17876 19.175L3.02739 4.0625C3.02739 3.7375 3.17876 3.575 3.33013 3.4125C3.4815 3.25 3.78424 3.25 4.08698 3.25L17.4075 8.125C22.5541 10.075 25.4301 15.925 23.9164 21.45L21.6459 29.9C21.6459 30.3875 21.3431 30.55 21.0404 30.55ZM4.54109 5.2L4.69246 19.175C4.69246 24.2125 8.32534 28.275 13.0178 28.4375L20.5863 28.7625L22.5541 20.9625C23.7651 16.25 21.3431 11.2125 16.9534 9.5875L4.54109 5.2Z" fill="white"/>
<path d="M11.6555 16.5749L7.41713 15.9249C6.96302 15.9249 6.66028 15.4374 6.81165 14.9499C6.81165 14.4624 7.26576 14.1374 7.71987 14.2999L11.8069 14.9499C12.261 14.9499 12.5637 15.4374 12.4123 15.9249C12.4123 16.4124 12.1096 16.5749 11.6555 16.5749ZM14.2288 20.3124C14.0774 20.3124 14.0774 20.3124 14.2288 20.3124C13.6233 20.1499 13.4719 19.8249 13.4719 19.3374L14.3801 12.9999C14.3801 12.5124 14.8343 12.1874 15.2884 12.3499C15.7425 12.3499 16.0452 12.8374 15.8938 13.3249L14.9856 19.6624C14.8343 19.9874 14.5315 20.3124 14.2288 20.3124ZM16.6507 24.0499L10.5959 23.0749C10.1418 23.0749 9.83905 22.5874 9.99042 22.0999C9.99042 21.6124 10.4445 21.2874 10.8986 21.4499L16.8021 22.4249C17.2562 22.4249 17.5589 22.9124 17.4075 23.3999C17.2562 23.7249 16.9534 24.0499 16.6507 24.0499ZM19.0726 27.6249C18.4671 27.4624 18.3158 27.1374 18.3158 26.6499L19.0726 21.4499C19.0726 20.9624 19.5267 20.6374 19.9808 20.7999C20.4349 20.7999 20.7377 21.2874 20.5863 21.7749L19.8295 26.9749C19.8295 27.2999 19.5267 27.6249 19.0726 27.6249ZM23.9164 42.5749C23.4623 42.5749 23.1596 42.2499 23.1596 41.7624C23.1596 41.1124 23.311 40.4624 23.311 39.8124C23.6137 37.6999 24.5219 35.7499 25.7329 33.9624L28.3062 30.2249C28.6089 29.8999 29.063 29.7374 29.3658 30.0624C29.6685 30.3874 29.8199 30.8749 29.5171 31.1999L26.9438 34.9374C25.8843 36.3999 25.1274 38.1874 24.8247 40.1374C24.6733 40.6249 24.6733 41.2749 24.6733 41.9249C24.6733 42.2499 24.3706 42.5749 23.9164 42.5749Z" fill="white"/>
<path d="M21.3431 48.75C21.1918 48.75 21.0404 48.75 20.889 48.5875C20.5863 48.2625 20.4349 47.775 20.7377 47.45C22.1 45.5 23.0082 43.0625 23.3109 40.625V39.8125C23.4623 36.5625 22.5541 33.475 20.889 30.875L7.11437 10.4C6.81164 10.075 6.96301 9.5875 7.26575 9.2625C7.56848 9.1 8.17396 9.1 8.32533 9.425L22.1 29.9C24.0678 32.825 24.976 36.2375 24.8246 39.8125V40.625C24.5219 43.3875 23.6137 45.9875 22.1 48.2625C21.7973 48.5875 21.6459 48.75 21.3431 48.75Z" fill="white"/>
</svg>
