<svg width="41" height="41" viewBox="0 0 41 41" fill="none" xmlns="http://www.w3.org/2000/svg">
<path d="M31.6042 27.5845C31.6042 30.6427 30.3893 33.5758 28.2269 35.7383C26.0643 37.9007 23.1313 39.1157 20.073 39.1157C17.0147 39.1157 14.0817 37.9007 11.9192 35.7383C9.75665 33.5758 8.54175 30.6427 8.54175 27.5845C8.54175 19.2649 16.1404 6.72231 19.0002 2.30114C19.1151 2.1209 19.2738 1.97255 19.4612 1.86977C19.6488 1.767 19.8591 1.71313 20.073 1.71313C20.2869 1.71313 20.4972 1.767 20.6848 1.86977C20.8722 1.97255 21.0309 2.1209 21.1458 2.30114C24.0056 6.72231 31.6042 19.2649 31.6042 27.5845Z" stroke="#00533F" stroke-width="2.5625" stroke-linecap="round" stroke-linejoin="round"/>
<path d="M20.073 33.9958C19.2313 33.9958 18.3978 33.8299 17.6202 33.5075C16.8427 33.1854 16.1362 32.713 15.5413 32.1176C14.9463 31.5221 14.4746 30.8154 14.1529 30.0376C13.8313 29.2596 13.6661 28.4261 13.6668 27.5844" stroke="#00533F" stroke-width="2.5625" stroke-linecap="round" stroke-linejoin="round"/>
</svg>
