<svg width="38" height="40" viewBox="0 0 38 40" fill="none" xmlns="http://www.w3.org/2000/svg">
<path d="M27.5789 7.6842H34.9684C35.2699 7.6842 35.5591 7.80398 35.7723 8.01718C35.9855 8.23038 36.1053 8.51954 36.1053 8.82105V36.8631C36.1053 37.1647 35.9855 37.4538 35.7723 37.667C35.5591 37.8802 35.2699 38 34.9684 38H3.13684C2.83533 38 2.54617 37.8802 2.33297 37.667C2.11977 37.4538 2 37.1647 2 36.8631V8.82105C2 8.51954 2.11977 8.23038 2.33297 8.01718C2.54617 7.80398 2.83533 7.6842 3.13684 7.6842H10.5263" stroke="#00533F" stroke-width="2.84211" stroke-linecap="round" stroke-linejoin="round"/>
<path d="M19.0526 13.3684L17.1579 8.63158M27.1602 10.2023L27.5486 7.87179C27.5694 7.7476 27.5694 7.62082 27.5486 7.49663L27.1583 5.16611C27.0108 4.28193 26.5547 3.47865 25.871 2.89898C25.1872 2.31931 24.3201 2.00079 23.4238 2H14.6833C13.7863 1.99989 12.9183 2.31801 12.2338 2.89775C11.5492 3.4775 11.0926 4.28128 10.945 5.16611L10.5566 7.49663C10.5358 7.62082 10.5358 7.7476 10.5566 7.87179L10.945 10.2023C11.0926 11.0871 11.5492 11.8909 12.2338 12.4707C12.9183 13.0504 13.7863 13.3685 14.6833 13.3684H23.4219C24.3189 13.3685 25.1869 13.0504 25.8714 12.4707C26.5559 11.8909 27.0126 11.0871 27.1602 10.2023Z" stroke="#00533F" stroke-width="2.84211" stroke-linecap="round" stroke-linejoin="round"/>
</svg>
