<svg width="43" height="43" viewBox="0 0 43 43" fill="none" xmlns="http://www.w3.org/2000/svg">
<path d="M27.038 27.9219L28.9507 32.0349C28.9507 32.0349 37.549 33.8606 37.549 38.2032C37.549 41.2885 33.7235 41.2885 33.7235 41.2885H23.5358L18.52 38.5019" stroke="white" stroke-width="2.00631" stroke-linecap="round" stroke-linejoin="round"/>
<path d="M15.5754 27.9219L13.6649 32.0349C13.6649 32.0349 5.06445 33.8606 5.06445 38.2032C5.06445 41.2885 8.88986 41.2885 8.88986 41.2885H13.5044L18.5203 38.5019L24.6507 34.6007" stroke="white" stroke-width="2.00631" stroke-linecap="round" stroke-linejoin="round"/>
<path d="M1.24323 29.9775C1.24323 29.9775 6.02053 28.9498 8.88736 27.9222C11.752 13.5256 20.348 14.5533 21.3066 14.5533C22.2629 14.5533 30.8612 13.5256 33.7258 27.9222C36.5926 28.9476 41.3699 29.9775 41.3699 29.9775M21.3066 10.0792C22.489 10.0792 23.6231 9.60942 24.4592 8.77328C25.2954 7.93715 25.7651 6.8031 25.7651 5.62063C25.7651 4.43816 25.2954 3.30411 24.4592 2.46798C23.6231 1.63184 22.489 1.16211 21.3066 1.16211C20.1241 1.16211 18.9901 1.63184 18.1539 2.46798C17.3178 3.30411 16.848 4.43816 16.848 5.62063C16.848 6.8031 17.3178 7.93715 18.1539 8.77328C18.9901 9.60942 20.1241 10.0792 21.3066 10.0792Z" stroke="white" stroke-width="2.00631" stroke-linecap="round" stroke-linejoin="round"/>
</svg>
